<svg xmlns="http://www.w3.org/2000/svg" width="96" height="96" fill="#FFFFFF" viewBox="0 0 96 96" id="sun">
  <path stroke="#000" stroke-width="5" d="M65 47.5C65 57.165 57.165 65 47.5 65C37.835 65 30 57.165 30 47.5C30 37.835 37.835 30 47.5 30C57.165 30 65 37.835 65 47.5Z"></path>
  <path stroke="#000" stroke-linecap="round" stroke-width="5" d="M48 86L48 75.773M48 10L48 19.2945M10 48L20.227 48M86 48L76.7055 48M74.8701 74.8691L67.6385 67.6376M21.13 21.129L27.7022 27.7012M21.1299 74.8691L28.3615 67.6376M74.87 21.129L68.2978 27.7012"></path>
</svg>